<?xml version="1.0" encoding="UTF-8" standalone="no"?>
<svg
   version="1.1"
   style="display: block;"
   viewBox="0 0 2048 2048"
   width="2000"
   height="2000"
   preserveAspectRatio="none"
   id="svg6"
   sodipodi:docname="VL-logo.svg"
   inkscape:version="1.3.2 (091e20e, 2023-11-25)"
   xmlns:inkscape="http://www.inkscape.org/namespaces/inkscape"
   xmlns:sodipodi="http://sodipodi.sourceforge.net/DTD/sodipodi-0.dtd"
   xmlns="http://www.w3.org/2000/svg"
   xmlns:svg="http://www.w3.org/2000/svg">
  <defs
     id="defs6" />
  <sodipodi:namedview
     id="namedview6"
     pagecolor="#ffffff"
     bordercolor="#000000"
     borderopacity="0.25"
     inkscape:showpageshadow="2"
     inkscape:pageopacity="0.0"
     inkscape:pagecheckerboard="0"
     inkscape:deskcolor="#d1d1d1"
     inkscape:zoom="0.31662403"
     inkscape:cx="1051.7205"
     inkscape:cy="963.28759"
     inkscape:window-width="1512"
     inkscape:window-height="949"
     inkscape:window-x="0"
     inkscape:window-y="33"
     inkscape:window-maximized="0"
     inkscape:current-layer="svg6" />
  <path
     transform="translate(0,0)"
     fill="rgb(23,48,81)"
     d="M 1692.84 508.47 C 1694.75 508.644 1697.75 508.841 1699.22 507.396 C 1758.51 448.883 1817.61 389.834 1875.24 329.636 C 1878.35 326.395 1884.64 321.385 1888.72 320.503 C 1890.61 323.041 1890.2 324.624 1890.69 328.26 L 1890.7 511.268 L 1890.76 564.471 C 1890.77 575.509 1891.17 590.266 1889.61 600.997 C 1852.14 638.557 1815.25 677.373 1778 715.18 C 1751.65 741.914 1720.15 771.045 1695.7 799.108 C 1695.46 808.197 1694.57 818.046 1693.95 827.196 C 1693.49 834.048 1694.07 850.163 1693.04 856.148 C 1693.93 887.565 1692.32 923.259 1692.54 955.385 C 1692.82 977.986 1692.92 1000.59 1692.86 1023.19 C 1692.81 1035.84 1692.99 1049.78 1691.59 1062.26 C 1687.99 1094.61 1655.34 1121.04 1633.27 1142.84 L 1576.91 1198.76 L 1364.45 1410.3 L 1030.76 1744.15 C 1007.61 1766.91 984.66 1789.87 961.903 1813.02 C 939.853 1835.28 912.96 1868.36 882.082 1875.36 C 843.048 1884.22 810.768 1841.95 786.585 1817.51 L 726.385 1757.38 L 558.283 1589.87 L 351.185 1383.95 C 327.288 1360.46 303.57 1336.79 280.033 1312.94 C 259.443 1292.2 233.538 1272.86 228.248 1243.49 C 221.386 1205.4 258.36 1176.73 282.407 1153.45 C 297.347 1138.82 312.211 1124.12 326.997 1109.33 L 516.055 920.575 L 886.475 551.701 L 1012.64 426.39 C 1035.85 403.191 1058.86 379.127 1082.56 356.48 C 1109.36 330.873 1156.63 335.804 1191.34 335.857 L 1299.93 335.888 L 1489.72 335.568 C 1540.11 335.112 1590.46 335.216 1640.88 336.715 C 1663.82 337.398 1683.01 351.605 1689.74 373.829 C 1692.82 383.984 1692.49 395.429 1692.65 406.023 C 1692.78 427.571 1692.61 449.119 1692.14 470.662 C 1692 482.004 1691.2 497.441 1692.84 508.47 z"
     id="path2"
     style="fill:#45ecec;fill-opacity:1" />
  <path
     transform="translate(0,0)"
     fill="rgb(5,192,166)"
     d="M 1692.84 508.47 C 1694.75 508.644 1697.75 508.841 1699.22 507.396 C 1758.51 448.883 1817.61 389.834 1875.24 329.636 C 1878.35 326.395 1884.64 321.385 1888.72 320.503 C 1890.61 323.041 1890.2 324.624 1890.69 328.26 L 1890.7 511.268 L 1890.76 564.471 C 1890.77 575.509 1891.17 590.266 1889.61 600.997 C 1852.14 638.557 1815.25 677.373 1778 715.18 C 1751.65 741.914 1720.15 771.045 1695.7 799.108 C 1695.46 808.197 1694.57 818.046 1693.95 827.196 C 1693.49 834.048 1694.07 850.163 1693.04 856.148 C 1691.14 838.062 1694.74 820.287 1691.65 802.583 C 1648.9 848.951 1597.82 897.371 1553.34 942.705 L 1195.42 1303.17 L 1095.97 1403.44 C 1090.11 1409.41 1056.95 1444.29 1052.08 1447.2 C 1043.78 1457.21 1032.53 1466.9 1023.52 1476.47 C 1002.4 1498.87 979.966 1520.14 958.515 1542.24 C 951.808 1549.15 942.421 1559.81 934.316 1564.58 C 930.636 1563.49 840.426 1470.41 829.016 1458.95 L 667.917 1297.32 C 630.596 1260.12 593.489 1222.55 556.182 1185.32 C 551.04 1180.19 545.255 1174.06 542.059 1167.53 C 543.763 1163.93 576.737 1132.21 581.3 1127.75 C 607.137 1102.77 632.562 1077.38 657.565 1051.57 C 661.309 1047.74 681.31 1026.32 684.53 1025.48 C 696.539 1031.23 737.578 1075.49 749.943 1087.96 L 863.417 1202.21 C 884.09 1223.21 912.443 1253.62 933.877 1272.85 C 935.968 1271.54 937.556 1270.38 939.386 1268.69 C 967.024 1243.15 992.75 1215.54 1019.54 1189.15 L 1231.44 976.762 L 1516.88 690.503 C 1572.49 634.885 1628.49 579.395 1683.43 523.109 C 1688.27 518.148 1692.4 515.575 1692.84 508.47 z"
     id="path3"
     style="fill:#db5791;fill-opacity:1" />
  <path
     transform="translate(0,0)"
     fill="rgb(23,48,81)"
     d="M 218.562 1035.6 C 217.591 1023.9 218.463 1004.26 218.651 992.161 C 218.912 971.138 219.023 950.114 218.985 929.09 L 218.128 721.286 C 217.774 647.489 217.887 573.692 218.467 499.897 C 218.988 460.784 212.098 395.895 237.254 363.819 C 264.655 328.88 351.839 338.814 391.722 337.866 C 435.147 336.834 909.906 336.748 912.416 338.898 C 912.057 342.62 910.113 346.453 906.883 348.918 C 890.581 361.36 833.503 426.847 817.692 431.712 C 794.034 438.991 738.52 436.084 714.002 436.188 L 564.763 436.109 L 446.718 436.56 C 403.808 436.361 360.799 435.199 317.866 436.668 C 317.763 438.682 317.732 442.301 317.266 444.099 L 317.31 453.991 C 318.116 487.306 317.571 522.727 317.571 556.196 L 317.59 736.102 L 317.631 855.83 C 317.636 874.559 319.928 917.122 313.953 933.209 C 313.984 934.444 314.044 935.217 313.875 936.489 C 312.897 943.828 229.057 1027.38 218.562 1035.6 z"
     id="path5"
     style="fill:#8065d0;fill-opacity:1" />
</svg>
